#!OML:ASF E:\emotionWalksFemale\Project 1\Capture day 1\Session 1\Female1.ASF
:FULLY-SPECIFIED
:DEGREES
1240
root 7.84731 15.6152 -20.8283 181.241 -6.21899 -180.867
lowerback 3.89836 2.99817 1.41526
upperback -4.12333 4.02385 0.121581
thorax -6.38347 1.88173 -1.03341
lowerneck -6.50071 1.69778 -3.46937
upperneck 6.54993 1.76392 8.89048
head 3.20607 1.06161 3.70225
rclavicle -5.5287e-014 -1.98785e-015
rhumerus -34.3649 14.809 -90.3958
rradius 52.0848
rwrist 15.3064
rhand -25.372 -54.1088
rfingers 7.12502
rthumb 1.15233 275.915
lclavicle -5.5287e-014 -1.98785e-015
lhumerus -43.3727 -0.124737 83.6049
lradius 56.9082
lwrist 0.0921056
lhand -20.6591 -38.3203
lfingers 7.12502
lthumb 5.70352 -8.41701
rfemur 7.19597 0.909055 22.0759
rtibia 35.8801
rfoot -3.23614 -15.2226
rtoes 4.99862
lfemur -12.8051 -21.2767 -25.186
ltibia 20.809
lfoot -13.0522 22.4912
ltoes -28.9831
1241
root 7.81829 15.6274 -20.8997 181.508 -5.75975 -181.043
lowerback 3.84646 3.09898 1.1765
upperback -4.24438 4.13369 0.0854853
thorax -6.49345 1.94117 -0.949348
lowerneck -6.74756 1.49471 -3.90214
upperneck 7.04921 1.4403 9.6019
head 3.09159 0.948444 3.6171
rclavicle -1.37161e-014 2.78299e-015
rhumerus -34.7174 14.3479 -90.2966
rradius 51.5352
rwrist 15.1293
rhand -25.3092 -54.2377
rfingers 7.12502
rthumb 1.21292 275.786
lclavicle -1.37161e-014 2.78299e-015
lhumerus -43.2798 -0.52127 83.6598
lradius 57.003
lwrist -0.325377
lhand -19.9974 -37.498
lfingers 7.12502
lthumb 6.3423 -7.61293
rfemur 5.88485 0.476466 21.4995
rtibia 37.8956
rfoot -1.97219 -14.6484
rtoes 0.891388
lfemur -12.4838 -20.8731 -25.498
ltibia 20.2769
lfoot -12.8204 22.6117
ltoes -29.3926
1242
root 7.78898 15.6396 -20.9697 181.612 -5.39241 -181.175
lowerback 3.88051 3.11372 0.965831
upperback -4.28162 4.13722 0.0731188
thorax -6.56656 1.95079 -0.849174
lowerneck -6.847 1.2088 -4.19872
upperneck 7.12783 1.07047 9.72352
head 3.15468 0.765844 3.69032
rclavicle -6.55492e-014 -3.97569e-015
rhumerus -35.0141 13.8455 -90.252
rradius 50.9171
rwrist 15.101
rhand -25.4635 -54.1567
rfingers 7.12502
rthumb 1.06391 275.866
lclavicle -6.55492e-014 -3.97569e-015
lhumerus -43.1824 -0.819307 83.5147
lradius 57.076
lwrist -1.32556
lhand -19.3627 -37.1876
lfingers 7.12502
lthumb 6.955 -7.32186
rfemur 4.6803 0.00228667 20.9927
rtibia 39.9838
rfoot -1.11894 -14.0075
rtoes -2.9204
lfemur -11.8903 -20.4372 -25.8308
ltibia 19.5975
lfoot -12.6386 22.5934
ltoes -29.7451
1243
root 7.75571 15.6505 -21.0389 181.666 -5.12321 -181.442
lowerback 3.87982 3.08045 0.722452
upperback -4.2578 4.07402 0.0245934
thorax -6.5554 1.9309 -0.758024
lowerneck -6.62127 1.06718 -4.43965
upperneck 6.8952 0.915262 9.77427
head 3.05698 0.676541 3.73415
rclavicle -7.25316e-014 -3.57812e-015
rhumerus -35.2594 13.3467 -90.1219
rradius 50.3457
rwrist 15.21
rhand -25.4164 -53.8392
rfingers 7.12502
rthumb 1.10936 276.184
lclavicle -7.25316e-014 -3.57812e-015
lhumerus -42.985 -0.813651 83.4505
lradius 56.8696
lwrist -1.85515
lhand -19.1601 -37.4076
lfingers 7.12502
lthumb 7.15062 -7.54837
rfemur 3.53232 -0.49412 20.3273
rtibia 42.1066
rfoot -0.609805 -13.6685
rtoes 0.330529
lfemur -11.1475 -20.2473 -26.3502
ltibia 18.7754
lfoot -12.524 22.6749
ltoes -29.8933
1244
root 7.72743 15.6598 -21.1105 181.71 -4.81282 -181.777
lowerback 3.98357 3.0437 0.319757
upperback -4.32306 3.99254 -0.0176427
thorax -6.71064 1.90611 -0.579411
lowerneck -6.3282 0.932491 -4.65003
upperneck 6.74315 0.760922 9.7756
head 2.97294 0.585981 3.75853
rclavicle 3.83903e-014 9.54166e-015
rhumerus -35.7002 12.9239 -90.0192
rradius 49.911
rwrist 15.2648
rhand -24.8379 -54.151
rfingers 7.12502
rthumb 1.66816 275.876
lclavicle 3.83903e-014 9.54166e-015
lhumerus -42.8854 -0.881521 83.6453
lradius 56.5183
lwrist -1.0024
lhand -19.5574 -37.3317
lfingers 7.12502
lthumb 6.7671 -7.45982
rfemur 2.39108 -0.866167 19.684
rtibia 44.1629
rfoot 0.175928 -13.7508
rtoes 7.03633
lfemur -10.395 -20.1163 -26.9214
ltibia 17.9352
lfoot -12.4195 22.8742
ltoes -29.611
1245
root 7.70157 15.6722 -21.1825 181.684 -4.46618 -181.868
lowerback 4.06768 3.02467 0.126055
upperback -4.33796 3.95438 0.000252452
thorax -6.79014 1.89637 -0.455204
lowerneck -5.98838 0.737289 -4.48188
upperneck 6.45829 0.540119 9.32778
head 2.85056 0.455605 3.57837
rclavicle -3.37934e-015 -7.95139e-016
rhumerus -36.0317 12.4498 -89.9015
rradius 49.3092
rwrist 15.4136
rhand -24.355 -54.735
rfingers 7.12502
rthumb 2.13446 275.296
lclavicle -3.37934e-015 -7.95139e-016
lhumerus -42.638 -0.968583 83.7701
lradius 56.1202
lwrist -0.383686
lhand -19.6861 -36.8786
lfingers 7.12502
lthumb 6.64289 -7.00275
rfemur 1.25424 -1.13306 19.3938
rtibia 46.1326
rfoot 1.01884 -13.8414
rtoes 9.30693
lfemur -9.62187 -19.9195 -27.2179
ltibia 17.1448
lfoot -12.3228 23.0415
ltoes -29.2205
1246
root 7.67138 15.6847 -21.2498 181.593 -4.21739 -181.795
lowerback 4.21511 3.0042 0.219399
upperback -4.29464 3.94166 0.0594576
thorax -6.82711 1.88824 -0.4514
lowerneck -5.89336 0.451853 -4.72871
upperneck 6.38004 0.174214 9.41126
head 2.83693 0.267741 3.62916
rclavicle 7.46685e-014 1.51076e-014
rhumerus -36.2469 11.9457 -89.6873
rradius 48.5679
rwrist 15.3823
rhand -24.0056 -54.6494
rfingers 7.12502
rthumb 2.4719 275.385
lclavicle 7.46685e-014 1.51076e-014
lhumerus -42.2201 -0.672512 83.6226
lradius 55.6304
lwrist -1.41471
lhand -18.6897 -36.3241
lfingers 7.12502
lthumb 7.60471 -6.48083
rfemur 0.19266 -1.54637 19.2642
rtibia 48.0246
rfoot 1.59682 -13.8771
rtoes 7.70282
lfemur -8.83827 -19.7567 -27.3683
ltibia 16.3983
lfoot -12.2047 23.1051
ltoes -29.0531
1247
root 7.64323 15.6919 -21.3129 181.503 -4.05226 -181.797
lowerback 4.4475 2.93903 0.230223
upperback -4.23972 3.86481 0.113057
thorax -6.90641 1.85269 -0.405552
lowerneck -5.9465 0.154685 -5.16375
upperneck 6.34108 -0.182439 9.48755
head 2.86006 0.0866551 3.71077
rclavicle -5.76476e-015 -3.18055e-015
rhumerus -36.3994 11.6198 -89.4901
rradius 47.7846
rwrist 14.9552
rhand -23.4459 -54.4725
rfingers 7.12502
rthumb 3.01244 275.569
lclavicle -5.76476e-015 -3.18055e-015
lhumerus -41.8579 -0.407992 83.4877
lradius 55.0935
lwrist -2.32336
lhand -17.9134 -35.9956
lfingers 7.12502
lthumb 8.35389 -6.18081
rfemur -0.825553 -2.11202 19.0544
rtibia 49.8362
rfoot 2.01816 -14.1115
rtoes 6.70722
lfemur -8.10685 -19.6137 -27.598
ltibia 15.7096
lfoot -12.095 23.1369
ltoes -28.8738
1248
root 7.61917 15.6967 -21.3778 181.475 -3.86025 -181.972
lowerback 4.56902 2.88509 0.040729
upperback -4.21656 3.77854 0.072893
thorax -6.96217 1.81912 -0.339351
lowerneck -5.47246 -0.0240652 -5.15933
upperneck 5.90237 -0.399952 9.40001
head 2.66738 -0.0409174 3.66917
rclavicle -2.90971e-014 8.74653e-015
rhumerus -36.5282 11.1545 -89.3439
rradius 46.8168
rwrist 14.8807
rhand -22.8386 -54.4346
rfingers 7.12502
rthumb 3.59899 275.616
lclavicle -2.90971e-014 8.74653e-015
lhumerus -41.6844 -0.505591 83.4273
lradius 54.5629
lwrist -2.3867
lhand -17.8018 -35.6679
lfingers 7.12502
lthumb 8.46159 -5.85737
rfemur -1.92332 -2.57207 18.7152
rtibia 51.572
rfoot 2.26694 -14.7066
rtoes 8.7633
lfemur -7.45149 -19.5024 -27.9872
ltibia 15.1083
lfoot -12.0166 23.4087
ltoes -28.4194
1249
root 7.59412 15.7005 -21.4465 181.427 -3.71505 -182.163
lowerback 4.52193 2.81317 -0.157344
upperback -4.12677 3.66796 0.0290582
thorax -6.84929 1.77601 -0.258104
lowerneck -5.57518 -0.407645 -5.23117
upperneck 5.97278 -0.903204 9.29668
head 2.74313 -0.291637 3.6304
rclavicle -3.22031e-014 -2.38542e-015
rhumerus -36.5327 10.5871 -89.1496
rradius 45.7041
rwrist 15.0456
rhand -22.1786 -54.3949
rfingers 7.12502
rthumb 4.23629 275.667
lclavicle -3.22031e-014 -2.38542e-015
lhumerus -41.3476 -0.392774 83.3136
lradius 53.8142
lwrist -2.68133
lhand -17.569 -35.3973
lfingers 7.12502
lthumb 8.68626 -5.59605
rfemur -2.97557 -3.01103 18.3953
rtibia 53.1887
rfoot 1.43244 -15.2641
rtoes 8.18471
lfemur -6.76739 -19.5406 -28.4138
ltibia 14.5415
lfoot -12.2028 23.7458
ltoes -26.6954
1250
root 7.56762 15.7022 -21.5091 181.343 -3.69914 -182.267
lowerback 4.69515 2.6835 -0.267799
upperback -4.07707 3.49147 0.0548699
thorax -6.90471 1.69653 -0.159006
lowerneck -5.12272 -0.566592 -5.58433
upperneck 5.51184 -1.07308 9.37956
head 2.54589 -0.395285 3.70506
rclavicle -2.70347e-014 -1.23246e-014
rhumerus -36.6325 10.1441 -88.8899
rradius 44.7861
rwrist 14.8614
rhand -21.7824 -54.3681
rfingers 7.12502
rthumb 4.6189 275.702
lclavicle -2.70347e-014 -1.23246e-014
lhumerus -40.9688 -0.0106781 83.2083
lradius 52.9402
lwrist -3.27708
lhand -17.1642 -35.2698
lfingers 7.12502
lthumb 9.07691 -5.48512
rfemur -3.94118 -3.62206 18.1879
rtibia 54.6515
rfoot 0.985939 -15.7266
rtoes 7.52695
lfemur -6.11552 -19.6458 -28.7481
ltibia 14.0116
lfoot -12.4574 23.7096
ltoes -25.48
